<?xml version="1.0" standalone="no"?>
<!DOCTYPE svg PUBLIC "-//W3C//DTD SVG 20010904//EN"
 "http://www.w3.org/TR/2001/REC-SVG-20010904/DTD/svg10.dtd">
<svg version="1.0" xmlns="http://www.w3.org/2000/svg"
 width="223.000000pt" height="223.000000pt" viewBox="0 0 223.000000 223.000000"
 preserveAspectRatio="xMidYMid meet">
<metadata>
Created by potrace 1.11, written by Peter Selinger 2001-2013
</metadata>
<g transform="translate(0.000000,223.000000) scale(0.100000,-0.100000)"
fill="#000000" stroke="none">
<path d="M52 1947 c-6 -150 51 -311 151 -422 l52 -59 -95 70 c-52 38 -110 81
-129 94 l-34 24 7 -45 c11 -77 71 -183 145 -258 l68 -69 -76 35 c-103 47 -101
47 -101 33 0 -6 15 -45 34 -85 44 -95 113 -169 191 -206 l60 -29 -52 0 c-28 0
-54 -4 -57 -9 -9 -14 76 -96 125 -122 32 -17 61 -23 107 -24 l63 0 -36 -33
c-19 -18 -33 -38 -29 -43 13 -21 89 -49 134 -49 25 0 57 7 73 14 32 17 32 17
12 -31 -20 -48 -19 -50 14 -58 44 -10 106 11 135 46 14 17 26 25 26 18 0 -7
26 -38 58 -69 32 -30 45 -43 28 -29 -44 37 -62 41 -101 22 -40 -19 -45 -38
-12 -47 21 -6 21 -7 5 -20 -24 -18 -23 -24 5 -28 20 -3 19 -5 -13 -26 -37 -23
-75 -29 -85 -12 -11 18 -73 12 -85 -9 -14 -27 -13 -34 6 -27 8 3 21 0 29 -7
10 -11 10 -16 -1 -32 -21 -28 -17 -63 7 -76 20 -10 21 -9 16 10 -8 33 25 26
45 -9 19 -34 43 -41 35 -10 -3 11 -1 20 4 20 5 0 9 16 9 35 0 39 21 55 45 35
8 -6 23 -9 35 -5 11 4 19 3 18 -2 -2 -4 1 -10 7 -13 5 -3 11 3 13 13 4 21 -24
57 -45 57 -8 0 -11 5 -8 10 3 6 17 10 31 10 13 0 24 -4 24 -10 0 -24 27 -7 35
22 37 122 80 -108 52 -277 -13 -74 5 -46 42 65 88 271 83 427 -19 530 -59 58
-100 73 -189 68 -63 -3 -67 -5 -88 -46 -1 -2 -11 1 -22 8 -28 15 -26 46 5 87
20 26 30 32 49 27 19 -5 27 0 39 25 22 42 20 46 -10 22 -15 -12 -33 -21 -41
-21 -11 0 -11 5 2 30 9 17 22 30 30 30 8 0 15 6 15 13 0 23 55 67 83 67 25 0
27 3 27 45 l0 45 110 0 110 0 0 -46 0 -46 55 4 55 3 0 -42 c0 -41 1 -43 30
-43 83 0 76 -184 -15 -393 -19 -45 -33 -83 -30 -85 16 -16 155 100 155 130 0
6 10 -2 22 -17 35 -45 119 -70 157 -46 12 8 11 15 -3 50 -21 53 -21 52 12 35
15 -7 47 -14 72 -14 45 0 121 28 134 49 4 5 -10 25 -29 43 l-36 33 63 0 c46 1
75 7 107 24 43 22 131 104 131 122 0 5 -26 9 -57 9 l-58 0 60 29 c67 31 141
104 175 171 26 51 52 122 46 127 -2 2 -41 -14 -87 -35 l-84 -39 66 67 c73 74
134 182 145 259 l7 45 -34 -24 c-19 -13 -77 -56 -129 -94 l-95 -70 52 58 c100
113 156 267 152 422 -1 41 -5 74 -9 74 -4 0 -19 -18 -34 -40 -25 -38 -29 -40
-76 -40 l-50 0 0 40 0 40 -55 0 -55 0 0 -40 0 -40 -52 -1 c-29 0 -78 -1 -108
-2 l-55 -2 0 -40 0 -40 55 0 55 0 -3 -42 -4 -42 -51 -3 -52 -3 0 -45 1 -45
-53 3 -53 4 0 -41 0 -41 53 0 52 0 -3 -45 -4 -45 -54 0 -54 0 0 45 0 45 -107
-1 c-60 0 -132 0 -160 0 l-53 1 0 40 0 40 53 1 c28 0 77 1 107 2 l55 2 0 40 0
40 -55 0 -55 0 3 42 4 42 51 3 52 3 0 40 0 40 -52 3 -53 3 0 40 0 39 -55 0
-55 0 0 -40 0 -40 55 0 55 0 0 -45 0 -45 -110 0 -110 0 0 -40 0 -40 55 0 55 0
0 -45 0 -45 -57 0 -58 0 0 42 0 43 -52 3 -53 3 0 39 0 39 53 3 52 3 0 40 0 40
-52 3 -53 3 0 -45 0 -46 -55 0 -55 0 0 -39 0 -39 -55 -4 -55 -3 0 43 0 42 -55
0 -55 0 0 46 0 45 -52 -3 -53 -3 -2 -79 c-2 -44 -4 -81 -6 -83 -2 -2 -51 -4
-108 -6 l-104 -2 0 -40 0 -40 55 0 55 0 0 -94 0 -93 -58 63 c-32 35 -85 97
-118 137 l-60 72 60 0 61 0 0 40 0 40 -52 0 -53 0 0 42 0 43 -52 3 c-47 3 -52
1 -55 -20 -3 -20 -9 -14 -47 40 -25 34 -48 62 -51 62 -3 0 -7 -33 -8 -73z
m1958 -74 c0 -81 -15 -103 -73 -103 l-39 0 4 -45 3 -45 -57 0 -58 0 0 45 0 45
55 0 55 0 0 85 0 85 55 0 55 0 0 -67z m-1305 -145 l0 -43 55 0 55 0 -4 -42 -3
-43 57 0 57 0 -2 43 c-1 23 -1 61 -1 85 l1 42 55 0 55 0 1 -42 c0 -24 0 -62
-1 -85 l-2 -43 111 0 111 0 0 -87 0 -88 -57 0 -58 0 4 43 3 42 -56 0 -56 0 0
-85 0 -85 -55 0 -55 0 0 -40 0 -40 -55 0 -55 0 0 85 0 85 55 0 55 0 0 40 0 40
-55 0 -55 0 0 45 0 45 -110 -2 -110 -3 0 88 0 87 58 0 57 0 0 -42z m1115 -147
c-16 -32 -30 -34 -30 -7 0 19 5 26 20 26 17 0 19 -3 10 -19z m-1115 -111 l0
-45 -57 0 -58 0 0 45 0 45 58 0 57 0 0 -45z m816 41 l47 -1 3 -42 4 -43 -110
0 -110 0 0 45 0 45 60 -2 c33 -1 81 -2 106 -2z m-818 -186 c-5 -24 -6 -24 -28
-7 l-23 17 26 6 c15 4 28 7 28 8 1 0 -1 -10 -3 -24z m876 15 c-1 -8 -90 -80
-99 -80 -4 0 -10 19 -11 43 l-4 42 58 0 c31 0 57 -2 56 -5z"/>
<path d="M920 1556 l0 -46 56 0 55 0 -3 43 -3 42 -52 3 -53 3 0 -45z"/>
<path d="M270 1980 l0 -40 50 0 50 0 0 40 0 40 -50 0 -50 0 0 -40z"/>
<path d="M810 1980 l0 -40 55 0 55 0 0 40 0 40 -55 0 -55 0 0 -40z"/>
<path d="M1470 1810 l0 -40 105 0 105 0 0 40 0 40 -105 0 -105 0 0 -40z"/>
</g>
</svg>
